<svg xmlns="http://www.w3.org/2000/svg" viewBox="0 0 512 512">
  <defs>
    <linearGradient id="g" x1="0" y1="0" x2="1" y2="1">
      <stop offset="0%" stop-color="#FB92B3"/>
      <stop offset="50%" stop-color="#A855F7"/>
      <stop offset="100%" stop-color="#6366F1"/>
    </linearGradient>
  </defs>
  <path d="M256 32C180 32 100 64 64 96C64 200 64 320 256 480C448 320 448 200 448 96C412 64 332 32 256 32Z" fill="url(#g)"/>
  <path d="M194.5 130C182.5 130 171.5 137.5 163.5 150.5C155.5 163.5 151.5 181.5 151.5 204C151.5 241 161.5 272 179.5 292C188.5 302 199.5 308.5 212.5 311.5C198.5 318.5 180.5 329.5 165.5 352.5C150.5 375.5 142.5 407 142.5 447C172.5 440 202.5 418.5 224.5 388.5C235.5 373.5 243.5 355.5 248.5 334.5C263.5 344.5 282.5 350.5 305.5 350.5C345.5 350.5 378.5 330.5 400.5 300.5C384.5 311.5 365.5 318.5 343.5 318.5C305.5 318.5 273.5 298.5 251.5 268.5C246.5 261.5 242.5 253.5 239.5 244.5C241.5 235.5 244.5 220.5 244.5 204C244.5 163.5 226.5 130 194.5 130Z" fill="#1E3A8A" opacity="0.8"/>
</svg>
